Coordinates
version=1
nRows=40
nColumns=30
inDegrees=yes

Units are S.I. units (second, meters, Newtons, ...)
Angles are in degrees.

endheader
time	floatyaw	floatroll	floatpitch	floatx	floaty	floatz	pro_sup_l	deviation_l	flexion_l	cmc_flexion_l	cmc_abduction_l	mp_flexion_l	ip_flexion_l	2mcp_flexion_l	2mcp_abduction_l	2pm_flexion_l	2md_flexion_l	3mcp_flexion_l	3mcp_abduction_l	3pm_flexion_l	3md_flexion_l	4mcp_flexion_l	4mcp_abduction_l	4pm_flexion_l	4md_flexion_l	5mcp_flexion_l	5mcp_abduction_l	5pm_flexion_l	5md_flexion_l
-1.495000	-160.147433	-5.066637	-73.570646	0.081612	-0.181933	-0.017351	102.313366	1.520358	0.694033	15.772152	4.865895	-25.081231	-40.729507	28.873353	7.396126	41.164153	28.675709	21.363839	4.098849	43.657754	29.292368	9.502987	-4.695332	52.553036	35.687772	-2.452500	-7.399767	61.909715	42.313126
-1.485000	-160.147433	-5.066637	-73.570646	0.081610	-0.181932	-0.017351	102.305575	1.519934	0.699167	15.750701	4.860011	-25.074794	-40.711942	28.861160	7.397631	41.179041	28.691790	21.360661	4.100538	43.657063	29.295642	9.498556	-4.696136	52.556345	35.686255	-2.464357	-7.398145	61.914006	42.307847
-1.475000	-160.147433	-5.066637	-73.570646	0.081608	-0.181932	-0.017350	102.301899	1.521557	0.702946	15.731764	4.849453	-25.069436	-40.697183	28.849827	7.401575	41.191382	28.704397	21.357810	4.099893	43.661925	29.301068	9.498711	-4.696958	52.557579	35.685169	-2.470489	-7.393913	61.911901	42.298703
-1.465000	-160.147433	-5.066637	-73.570646	0.081608	-0.181928	-0.017348	102.302663	1.525272	0.706283	15.715169	4.838637	-25.066650	-40.688188	28.841143	7.408444	41.196259	28.709609	21.355451	4.096901	43.673282	29.308326	9.502578	-4.698201	52.556980	35.684963	-2.469686	-7.387040	61.901911	42.286519
-1.455000	-160.147433	-5.066637	-73.570646	0.081610	-0.181922	-0.017345	102.306180	1.530239	0.710325	15.698365	4.834137	-25.066595	-40.684327	28.835853	7.417321	41.191425	28.706855	21.352634	4.092691	43.689776	29.317085	9.507867	-4.700095	52.555313	35.685827	-2.463207	-7.378563	61.885386	42.273842
-1.445000	-160.147433	-5.066637	-73.570646	0.081613	-0.181911	-0.017342	102.310104	1.534913	0.715933	15.677657	4.842055	-25.068040	-40.681558	28.833668	7.426178	41.178556	28.699293	21.347959	4.089202	43.707869	29.326857	9.512143	-4.702388	52.553210	35.687442	-2.453669	-7.370495	61.866042	42.263970
-1.435000	-160.147433	-5.066637	-73.570646	0.081616	-0.181896	-0.017341	102.313067	1.537502	0.723418	15.650197	4.864572	-25.069424	-40.674957	28.833646	7.432571	41.162829	28.692390	21.340595	4.088245	43.722977	29.336768	9.513962	-4.704299	52.550496	35.688917	-2.443845	-7.365165	61.848271	42.259460
-1.425000	-160.147433	-5.066637	-73.570646	0.081617	-0.181878	-0.017346	102.315547	1.536598	0.732675	15.615674	4.897679	-25.070285	-40.662169	28.834831	7.434484	41.150828	28.691333	21.330948	4.090521	43.731191	29.345492	9.513251	-4.704828	52.546139	35.689056	-2.436068	-7.364279	61.835319	42.261063
-1.415000	-160.147433	-5.066637	-73.570646	0.081615	-0.181857	-0.017360	102.319469	1.531772	0.743577	15.576699	4.932001	-25.071897	-40.645353	28.836883	7.431097	41.147808	28.698623	21.320631	4.095171	43.731012	29.351667	9.510949	-4.703248	52.539080	35.686967	-2.432011	-7.368229	61.828438	42.267734
-1.405000	-160.147433	-5.066637	-73.570646	0.081610	-0.181834	-0.017386	102.326762	1.523915	0.756315	15.537564	4.956795	-25.076467	-40.630020	28.840288	7.423224	41.155912	28.713254	21.311914	4.100169	43.724443	29.354750	9.508484	-4.699517	52.529446	35.682719	-2.432228	-7.375982	61.827432	42.277627
-1.395000	-160.147433	-5.066637	-73.570646	0.081598	-0.181808	-0.017428	102.337561	1.515112	0.771385	15.502076	4.964913	-25.085425	-40.621412	28.845959	7.413107	41.174383	28.731891	21.307027	4.103352	43.716881	29.355765	9.507620	-4.694379	52.519209	35.677550	-2.435491	-7.385559	61.831978	42.289296
-1.385000	-160.147433	-5.066637	-73.570646	0.081577	-0.181776	-0.017486	102.348951	1.508108	0.789119	15.471847	4.955619	-25.098156	-40.621039	28.854399	7.403517	41.201317	28.751093	21.307559	4.103506	43.715574	29.357229	9.510537	-4.689093	52.511737	35.673377	-2.438629	-7.394853	61.842595	42.302223
-1.375000	-160.147433	-5.066637	-73.570646	0.081541	-0.181737	-0.017561	102.355171	1.505654	0.808982	15.446085	4.933672	-25.112237	-40.625908	28.865025	7.396557	41.235310	28.768957	21.314032	4.100885	43.726944	29.361968	9.519582	-4.684864	52.510432	35.671833	-2.437518	-7.402414	61.860445	42.316400
-1.365000	-160.147433	-5.066637	-73.570646	0.081486	-0.181689	-0.017653	102.349600	1.510065	0.829095	15.422676	4.905813	-25.125058	-40.630794	28.876075	7.392847	41.275476	28.785158	21.325706	4.096941	43.753684	29.371384	9.536384	-4.682262	52.517171	35.673435	-2.429041	-7.407835	61.886116	42.331508
-1.355000	-160.147433	-5.066637	-73.570646	0.081408	-0.181630	-0.017761	102.327656	1.522982	0.846416	15.399352	4.877592	-25.135577	-40.631539	28.885172	7.391578	41.319876	28.799782	21.340718	4.093478	43.792919	29.384318	9.560733	-4.680953	52.531253	35.677412	-2.412883	-7.411609	61.918180	42.346506
-1.345000	-160.147433	-5.066637	-73.570646	0.081306	-0.181557	-0.017883	102.288926	1.545116	0.857585	15.373986	4.852764	-25.144808	-40.626900	28.890227	7.391275	41.364083	28.812347	21.356706	4.091722	43.836601	29.397474	9.590316	-4.679901	52.549209	35.682317	-2.391681	-7.414580	61.952362	42.359917
-1.335000	-160.147433	-5.066637	-73.570646	0.081182	-0.181468	-0.018016	102.237221	1.575898	0.859966	15.344255	4.834944	-25.154645	-40.618042	28.890382	7.390707	41.401789	28.821980	21.371911	4.091806	43.874312	29.407244	9.622155	-4.677916	52.565387	35.686921	-2.368815	-7.417395	61.981789	42.370358
-1.325000	-160.147433	-5.066637	-73.570646	0.081036	-0.181358	-0.018160	102.178564	1.613249	0.852275	15.307780	4.829183	-25.165843	-40.606682	28.886686	7.389357	41.427694	28.828506	21.386415	4.092809	43.897303	29.411711	9.655352	-4.674214	52.573064	35.690678	-2.344912	-7.420273	61.998532	42.376799
-1.315000	-160.147433	-5.066637	-73.570646	0.080869	-0.181219	-0.018319	102.118318	1.653757	0.834490	15.263407	4.841153	-25.176561	-40.593592	28.882141	7.387363	41.440849	28.833301	21.402748	4.093257	43.901992	29.411538	9.693230	-4.668715	52.566069	35.693468	-2.315525	-7.423185	61.996314	42.378547
-1.305000	-160.147433	-5.066637	-73.570646	0.080678	-0.181049	-0.018495	102.058893	1.693311	0.807330	15.213054	4.873820	-25.182520	-40.578327	28.880789	7.385283	41.446126	28.839180	21.425120	4.091783	43.891677	29.409468	9.742757	-4.662020	52.541128	35.695117	-2.272177	-7.426345	61.973676	42.375417
-1.295000	-160.147433	-5.066637	-73.570646	0.080461	-0.180848	-0.018693	101.998928	1.728090	0.771950	15.162590	4.923976	-25.178889	-40.559922	28.885929	7.384057	41.452789	28.849444	21.457223	4.087765	43.876070	29.409115	9.810760	-4.655157	52.500526	35.695447	-2.206825	-7.430735	61.936230	42.368420
-1.285000	-160.147433	-5.066637	-73.570646	0.080215	-0.180621	-0.018914	101.934001	1.755774	0.730371	15.120411	4.981728	-25.163162	-40.537990	28.898238	7.385167	41.470722	28.866681	21.499628	4.081772	43.868524	29.413743	9.898879	-4.649271	52.453494	35.695028	-2.117521	-7.438323	61.896392	42.360613
-1.275000	-160.147433	-5.066637	-73.570646	0.079939	-0.180378	-0.019154	101.858379	1.776680	0.686401	15.093626	5.034162	-25.137714	-40.513885	28.914889	7.390632	41.505762	28.891713	21.548460	4.075614	43.881136	29.425279	10.000554	-4.645349	52.414312	35.695976	-2.011933	-7.451598	61.869756	42.357298
-1.265000	-160.147433	-5.066637	-73.570646	0.079631	-0.180129	-0.019408	101.767156	1.794251	0.646075	15.083653	5.071117	-25.110542	-40.491504	28.930545	7.402454	41.556107	28.922993	21.596637	4.071847	43.919032	29.443670	10.102519	-4.644034	52.396852	35.701946	-1.906201	-7.472417	61.869203	42.364953
-1.255000	-160.147433	-5.066637	-73.570646	0.079296	-0.179881	-0.019668	101.658135	1.814245	0.616657	15.084086	5.089129	-25.092932	-40.476743	28.940094	7.421514	41.611924	28.956921	21.637399	4.072814	43.976678	29.466968	10.190630	-4.645510	52.407907	35.717007	-1.818909	-7.500638	61.899566	42.389046
-1.245000	-160.147433	-5.066637	-73.570646	0.078936	-0.179639	-0.019927	101.532857	1.842500	0.604173	15.082819	5.091110	-25.094199	-40.474791	28.941747	7.446508	41.659366	28.989428	21.668286	4.079653	44.038933	29.492368	10.257056	-4.649441	52.443109	35.743914	-1.762754	-7.533372	61.955718	42.431672
-1.235000	-160.147433	-5.066637	-73.570646	0.078558	-0.179408	-0.020180	101.396274	1.881996	0.610557	15.067654	5.082880	-25.116004	-40.486246	28.938526	7.473725	41.687699	29.018371	21.693161	4.091735	44.087265	29.517760	10.304671	-4.654963	52.488129	35.782722	-1.738124	-7.565479	62.025070	42.490191
-1.225000	-160.147433	-5.066637	-73.570646	0.078173	-0.179188	-0.020423	101.255153	1.930726	0.631992	15.032145	5.069970	-25.150304	-40.505200	28.936971	7.498124	41.695701	29.045323	21.720800	4.106798	44.108450	29.542904	10.345878	-4.660775	52.524991	35.830563	-1.732137	-7.591315	62.093005	42.557643
-1.215000	-160.147433	-5.066637	-73.570646	0.077792	-0.178983	-0.020654	101.116010	1.981825	0.659528	14.978411	5.057009	-25.183363	-40.522012	28.943658	7.515262	41.693497	29.075441	21.760493	4.121696	44.101420	29.569557	10.396410	-4.665391	52.540451	35.882675	-1.723768	-7.606992	62.148478	42.624863
-1.205000	-160.147433	-5.066637	-73.570646	0.077425	-0.178797	-0.020873	100.983523	2.026216	0.681900	14.915772	5.048895	-25.203928	-40.529979	28.961612	7.523016	41.698632	29.115320	21.817034	4.133491	44.078833	29.600683	10.467702	-4.667520	52.532254	35.934270	-1.692368	-7.612154	62.187456	42.683568
-1.195000	-160.147433	-5.066637	-73.570646	0.077077	-0.178630	-0.021082	100.859904	2.056310	0.689328	14.856649	5.051179	-25.210159	-40.531287	28.988769	7.522321	41.728444	29.170036	21.887924	4.140502	44.062653	29.639493	10.561915	-4.666511	52.510535	35.982624	-1.625536	-7.610482	62.213410	42.729456
-1.185000	-160.147433	-5.066637	-73.570646	0.076746	-0.178479	-0.021289	100.745096	2.068614	0.676769	14.812147	5.068111	-25.210486	-40.537502	29.019226	7.516846	41.792445	29.240869	21.964219	4.142920	44.076130	29.688960	10.671548	-4.662728	52.494416	36.028604	-1.523230	-7.608640	62.235433	42.764166
-1.175000	-160.147433	-5.066637	-73.570646	0.076427	-0.178339	-0.021500	100.637529	2.064023	0.645432	14.788973	5.099366	-25.217931	-40.563576	29.046241	7.511946	41.888203	29.324569	22.034302	4.142688	44.135978	29.751673	10.782989	-4.657663	52.505729	36.076641	-1.397042	-7.613910	62.264948	42.794907
-1.165000	-160.147433	-5.066637	-73.570646	0.076116	-0.178206	-0.021719	100.535002	2.046134	0.602197	14.788005	5.138095	-25.241980	-40.619056	29.064971	7.513109	42.002621	29.414326	22.088598	4.142597	44.247577	29.829184	10.881967	-4.653619	52.561999	36.132552	-1.265409	-7.631298	62.311928	42.831397
-1.155000	-160.147433	-5.066637	-73.570646	0.075811	-0.178079	-0.021944	100.435067	2.018949	0.557399	14.804194	5.172256	-25.283377	-40.702031	29.073595	7.524172	42.117791	29.502032	22.123239	4.145041	44.403587	29.920403	10.958699	-4.652935	52.670355	36.200094	-1.146808	-7.661263	62.381547	42.881440
-1.145000	-160.147433	-5.066637	-73.570646	0.075518	-0.177962	-0.022167	100.334531	1.985213	0.521874	14.827755	5.188996	-25.334510	-40.799179	29.072858	7.545937	42.218243	29.580912	22.141421	4.151049	44.585201	30.019765	11.010840	-4.657039	52.824113	36.278388	-1.053662	-7.699265	62.472343	42.947563
-1.135000	-160.147433	-5.066637	-73.570646	0.075243	-0.177862	-0.022376	100.228779	1.945909	0.504122	14.846888	5.180010	-25.383991	-40.891199	29.064967	7.576029	42.296065	29.647487	22.152056	4.160104	44.765869	30.116939	11.043076	-4.665809	53.003837	36.362099	-0.989402	-7.737644	62.576698	43.026547
-1.125000	-160.147433	-5.066637	-73.570646	0.074990	-0.177784	-0.022565	100.112461	1.900700	0.508188	14.851614	5.145390	-25.422071	-40.960311	29.052644	7.610234	42.352032	29.702066	22.166132	4.170657	44.917858	30.199284	11.063438	-4.677587	53.183462	36.444392	-0.949914	-7.769049	62.683652	43.111855
-1.115000	-160.147433	-5.066637	-73.570646	0.074758	-0.177731	-0.022731	99.982231	1.848890	0.532668	14.837251	5.094197	-25.444317	-40.996582	29.038893	7.644461	42.392894	29.747522	22.192160	4.180928	45.020742	30.256497	11.078223	-4.689873	53.339595	36.520845	-0.928436	-7.789501	62.783056	43.197260
-1.105000	-160.147433	-5.066637	-73.570646	0.074543	-0.177702	-0.022880	99.840067	1.790515	0.571173	14.805706	5.041371	-25.452646	-41.000932	29.027720	7.676080	42.426412	29.786815	22.232878	4.189564	45.068673	30.285048	11.088663	-4.700356	53.460220	36.591930	-0.920762	-7.799382	62.869390	43.279459
